<svg width="183" height="68" viewBox="0 0 183 68" fill="none" xmlns="http://www.w3.org/2000/svg">
<path d="M50.229 34.0662C50.2151 31.6821 51.2953 29.8852 53.4766 28.5604C52.2566 26.8125 50.4108 25.8511 47.9778 25.6659C45.6741 25.4841 43.1536 27.0082 42.2307 27.0082C41.2554 27.0082 39.0251 25.7288 37.2703 25.7288C33.6486 25.7847 29.7998 28.6163 29.7998 34.3773C29.7998 36.0797 30.1109 37.8381 30.7332 39.6489C31.5652 42.033 34.5645 47.8744 37.6932 47.7801C39.3293 47.7416 40.4864 46.6195 42.6153 46.6195C44.6813 46.6195 45.751 47.7801 47.5758 47.7801C50.7324 47.7346 53.4451 42.4245 54.2352 40.0334C50.0018 38.0374 50.229 34.1885 50.229 34.0662V34.0662ZM46.555 23.4041C48.3273 21.2997 48.1665 19.384 48.1141 18.6953C46.548 18.7862 44.7372 19.7615 43.706 20.9606C42.5698 22.247 41.9021 23.8376 42.0455 25.6309C43.7374 25.7602 45.2825 24.8898 46.555 23.4041V23.4041Z" fill="white"/>
<path d="M71.7209 23.0249C71.6522 22.8094 71.5599 22.6165 71.4439 22.446C71.3303 22.2732 71.1941 22.1264 71.0355 22.0057C70.8769 21.8826 70.6958 21.7891 70.4922 21.7251C70.291 21.6612 70.0696 21.6293 69.8281 21.6293C69.4186 21.6293 69.0492 21.7346 68.7202 21.9453C68.3911 22.156 68.1307 22.465 67.9389 22.8722C67.7495 23.277 67.6548 23.773 67.6548 24.3601C67.6548 24.9496 67.7507 25.4479 67.9425 25.8551C68.1342 26.2623 68.397 26.5713 68.7308 26.782C69.0646 26.9927 69.4446 27.098 69.8707 27.098C70.2661 27.098 70.6106 27.0175 70.9041 26.8565C71.2 26.6955 71.4285 26.4683 71.5895 26.1747C71.7528 25.8788 71.8345 25.5308 71.8345 25.1307L72.1186 25.1839H70.0376V24.2784H72.8963V25.1058C72.8963 25.7166 72.7661 26.2469 72.5057 26.6967C72.2476 27.1442 71.8902 27.4898 71.4332 27.7337C70.9787 27.9775 70.4579 28.0994 69.8707 28.0994C69.2126 28.0994 68.6349 27.9479 68.1378 27.6449C67.643 27.3419 67.2571 26.9122 66.9801 26.3558C66.7031 25.7971 66.5646 25.1342 66.5646 24.3672C66.5646 23.7872 66.6451 23.2663 66.8061 22.8047C66.9671 22.343 67.1932 21.9512 67.4844 21.6293C67.7779 21.3049 68.1224 21.0575 68.5178 20.8871C68.9155 20.7143 69.3499 20.6278 69.821 20.6278C70.214 20.6278 70.5798 20.6858 70.9183 20.8018C71.2592 20.9179 71.5623 21.0824 71.8274 21.2955C72.0949 21.5085 72.3163 21.7618 72.4915 22.0554C72.6667 22.3466 72.785 22.6697 72.8466 23.0249H71.7209ZM76.5549 28.1101C76.0175 28.1101 75.5546 27.9953 75.1664 27.7656C74.7805 27.5336 74.4822 27.2081 74.2715 26.7891C74.0632 26.3677 73.959 25.8741 73.959 25.3082C73.959 24.7495 74.0632 24.2571 74.2715 23.831C74.4822 23.4048 74.7757 23.0722 75.1522 22.8331C75.531 22.594 75.9737 22.4744 76.4803 22.4744C76.7881 22.4744 77.0864 22.5253 77.3752 22.6271C77.664 22.7289 77.9232 22.8887 78.1529 23.1065C78.3825 23.3243 78.5636 23.6072 78.6962 23.9553C78.8288 24.3009 78.8951 24.7211 78.8951 25.2159V25.5923H74.5591V24.7969H77.8546C77.8546 24.5175 77.7978 24.2701 77.6841 24.0547C77.5705 23.8369 77.4107 23.6652 77.2047 23.5398C77.0011 23.4143 76.762 23.3516 76.4874 23.3516C76.1891 23.3516 75.9287 23.425 75.7061 23.5717C75.486 23.7161 75.3155 23.9055 75.1948 24.1399C75.0764 24.3719 75.0172 24.6241 75.0172 24.8963V25.5178C75.0172 25.8823 75.0811 26.1925 75.209 26.4482C75.3392 26.7038 75.5203 26.8991 75.7523 27.0341C75.9843 27.1667 76.2554 27.233 76.5655 27.233C76.7667 27.233 76.9502 27.2045 77.1159 27.1477C77.2817 27.0885 77.4249 27.0009 77.5456 26.8849C77.6664 26.7689 77.7587 26.6257 77.8226 26.4553L78.8276 26.6364C78.7471 26.9323 78.6027 27.1915 78.3944 27.4141C78.1884 27.6342 77.9292 27.8059 77.6167 27.929C77.3065 28.0497 76.9526 28.1101 76.5549 28.1101ZM82.6193 22.5455V23.3977H79.6399V22.5455H82.6193ZM80.4389 21.2386H81.5007V26.3984C81.5007 26.6044 81.5315 26.7595 81.593 26.8636C81.6546 26.9654 81.7339 27.0353 81.831 27.0732C81.9304 27.1087 82.0381 27.1264 82.1541 27.1264C82.2393 27.1264 82.3139 27.1205 82.3778 27.1087C82.4418 27.0968 82.4915 27.0874 82.527 27.0803L82.7188 27.9574C82.6572 27.9811 82.5696 28.0047 82.456 28.0284C82.3423 28.0545 82.2003 28.0687 82.0298 28.071C81.7505 28.0758 81.4901 28.026 81.2486 27.9219C81.0071 27.8177 80.8118 27.6567 80.6626 27.4389C80.5135 27.2211 80.4389 26.9477 80.4389 26.6186V21.2386ZM92.5661 23.0923H91.4581C91.4155 22.8556 91.3362 22.6473 91.2202 22.4673C91.1042 22.2874 90.9621 22.1347 90.794 22.0092C90.6259 21.8838 90.4377 21.7891 90.2294 21.7251C90.0234 21.6612 89.8045 21.6293 89.5724 21.6293C89.1534 21.6293 88.7782 21.7346 88.4467 21.9453C88.1177 22.156 87.8572 22.465 87.6655 22.8722C87.4761 23.2794 87.3814 23.7765 87.3814 24.3636C87.3814 24.9555 87.4761 25.455 87.6655 25.8622C87.8572 26.2694 88.1188 26.5772 88.4503 26.7855C88.7817 26.9938 89.1546 27.098 89.5689 27.098C89.7985 27.098 90.0163 27.0672 90.2223 27.0057C90.4306 26.9418 90.6188 26.8482 90.7869 26.7251C90.955 26.602 91.0971 26.4517 91.2131 26.2741C91.3314 26.0942 91.4131 25.8883 91.4581 25.6562L92.5661 25.6598C92.5069 26.0173 92.392 26.3464 92.2216 26.647C92.0535 26.9453 91.8369 27.2034 91.5717 27.4212C91.3089 27.6366 91.0083 27.8035 90.6697 27.9219C90.3312 28.0402 89.9619 28.0994 89.5618 28.0994C88.9321 28.0994 88.371 27.9503 87.8786 27.652C87.3861 27.3513 86.9979 26.9216 86.7138 26.3629C86.4321 25.8042 86.2912 25.1378 86.2912 24.3636C86.2912 23.5871 86.4332 22.9207 86.7173 22.3643C87.0014 21.8056 87.3897 21.3771 87.8821 21.0788C88.3745 20.7782 88.9344 20.6278 89.5618 20.6278C89.9477 20.6278 90.3075 20.6835 90.6413 20.7947C90.9775 20.9036 91.2794 21.0646 91.5469 21.2777C91.8144 21.4884 92.0357 21.7464 92.2109 22.0518C92.3861 22.3549 92.5045 22.7017 92.5661 23.0923ZM94.4446 28H93.2798L95.897 20.7273H97.1648L99.782 28H98.6172L96.5611 22.0483H96.5043L94.4446 28ZM94.6399 25.152H98.4183V26.0753H94.6399V25.152ZM100.832 20.7273H102.164L104.479 26.3807H104.564L106.88 20.7273H108.211V28H107.167V22.7372H107.1L104.955 27.9893H104.089L101.944 22.7337H101.876V28H100.832V20.7273ZM114.666 28.1101C114.154 28.1101 113.708 27.9929 113.327 27.7585C112.946 27.5241 112.65 27.1963 112.439 26.7749C112.228 26.3535 112.123 25.861 112.123 25.2976C112.123 24.7318 112.228 24.237 112.439 23.8132C112.65 23.3894 112.946 23.0604 113.327 22.826C113.708 22.5916 114.154 22.4744 114.666 22.4744C115.177 22.4744 115.623 22.5916 116.004 22.826C116.386 23.0604 116.682 23.3894 116.892 23.8132C117.103 24.237 117.208 24.7318 117.208 25.2976C117.208 25.861 117.103 26.3535 116.892 26.7749C116.682 27.1963 116.386 27.5241 116.004 27.7585C115.623 27.9929 115.177 28.1101 114.666 28.1101ZM114.669 27.2188C115.001 27.2188 115.275 27.1312 115.493 26.956C115.711 26.7808 115.872 26.5476 115.976 26.2564C116.083 25.9652 116.136 25.6444 116.136 25.294C116.136 24.946 116.083 24.6264 115.976 24.3352C115.872 24.0417 115.711 23.8061 115.493 23.6286C115.275 23.451 115.001 23.3622 114.669 23.3622C114.335 23.3622 114.058 23.451 113.838 23.6286C113.62 23.8061 113.458 24.0417 113.352 24.3352C113.248 24.6264 113.195 24.946 113.195 25.294C113.195 25.6444 113.248 25.9652 113.352 26.2564C113.458 26.5476 113.62 26.7808 113.838 26.956C114.058 27.1312 114.335 27.2188 114.669 27.2188ZM119.455 24.7614V28H118.393V22.5455H119.413V23.4332H119.48C119.606 23.1444 119.802 22.9124 120.07 22.7372C120.339 22.562 120.679 22.4744 121.089 22.4744C121.46 22.4744 121.786 22.5526 122.065 22.7088C122.345 22.8627 122.561 23.0923 122.715 23.3977C122.869 23.7031 122.946 24.0807 122.946 24.5305V28H121.884V24.6584C121.884 24.263 121.781 23.9541 121.575 23.7315C121.369 23.5066 121.086 23.3942 120.727 23.3942C120.48 23.3942 120.261 23.4474 120.07 23.554C119.88 23.6605 119.73 23.8168 119.619 24.0227C119.51 24.2263 119.455 24.4725 119.455 24.7614ZM129.563 22.5455V23.3977H126.583V22.5455H129.563ZM127.382 21.2386H128.444V26.3984C128.444 26.6044 128.475 26.7595 128.536 26.8636C128.598 26.9654 128.677 27.0353 128.774 27.0732C128.874 27.1087 128.981 27.1264 129.097 27.1264C129.183 27.1264 129.257 27.1205 129.321 27.1087C129.385 27.0968 129.435 27.0874 129.47 27.0803L129.662 27.9574C129.601 27.9811 129.513 28.0047 129.399 28.0284C129.286 28.0545 129.144 28.0687 128.973 28.071C128.694 28.0758 128.433 28.026 128.192 27.9219C127.95 27.8177 127.755 27.6567 127.606 27.4389C127.457 27.2211 127.382 26.9477 127.382 26.6186V21.2386ZM131.916 24.7614V28H130.854V20.7273H131.902V23.4332H131.969C132.097 23.1397 132.293 22.9065 132.555 22.7337C132.818 22.5608 133.161 22.4744 133.585 22.4744C133.959 22.4744 134.286 22.5514 134.565 22.7053C134.847 22.8591 135.065 23.0888 135.219 23.3942C135.375 23.6972 135.453 24.076 135.453 24.5305V28H134.391V24.6584C134.391 24.2583 134.288 23.9482 134.082 23.728C133.876 23.5054 133.59 23.3942 133.223 23.3942C132.972 23.3942 132.747 23.4474 132.548 23.554C132.352 23.6605 132.197 23.8168 132.083 24.0227C131.972 24.2263 131.916 24.4725 131.916 24.7614ZM139.221 28.1101C138.683 28.1101 138.221 27.9953 137.832 27.7656C137.446 27.5336 137.148 27.2081 136.938 26.7891C136.729 26.3677 136.625 25.8741 136.625 25.3082C136.625 24.7495 136.729 24.2571 136.938 23.831C137.148 23.4048 137.442 23.0722 137.818 22.8331C138.197 22.594 138.64 22.4744 139.146 22.4744C139.454 22.4744 139.752 22.5253 140.041 22.6271C140.33 22.7289 140.589 22.8887 140.819 23.1065C141.049 23.3243 141.23 23.6072 141.362 23.9553C141.495 24.3009 141.561 24.7211 141.561 25.2159V25.5923H137.225V24.7969H140.521C140.521 24.5175 140.464 24.2701 140.35 24.0547C140.237 23.8369 140.077 23.6652 139.871 23.5398C139.667 23.4143 139.428 23.3516 139.153 23.3516C138.855 23.3516 138.595 23.425 138.372 23.5717C138.152 23.7161 137.982 23.9055 137.861 24.1399C137.742 24.3719 137.683 24.6241 137.683 24.8963V25.5178C137.683 25.8823 137.747 26.1925 137.875 26.4482C138.005 26.7038 138.186 26.8991 138.418 27.0341C138.65 27.1667 138.921 27.233 139.232 27.233C139.433 27.233 139.616 27.2045 139.782 27.1477C139.948 27.0885 140.091 27.0009 140.212 26.8849C140.332 26.7689 140.425 26.6257 140.489 26.4553L141.494 26.6364C141.413 26.9323 141.269 27.1915 141.06 27.4141C140.854 27.6342 140.595 27.8059 140.283 27.929C139.973 28.0497 139.619 28.1101 139.221 28.1101Z" fill="white"/>
<path d="M68.9723 46H66.4411L71.0497 32.9091H73.9773L78.5923 46H76.0611L72.5646 35.5938H72.4624L68.9723 46ZM69.0554 40.8672H75.9588V42.772H69.0554V40.8672ZM80.2143 49.6818V36.1818H82.4899V37.8054H82.6241C82.7434 37.5668 82.9118 37.3132 83.1291 37.0447C83.3464 36.772 83.6404 36.5398 84.0112 36.348C84.3819 36.152 84.8549 36.054 85.4302 36.054C86.1887 36.054 86.8727 36.2479 87.4821 36.6357C88.0957 37.0192 88.5815 37.5881 88.9395 38.3423C89.3017 39.0923 89.4828 40.0128 89.4828 41.1037C89.4828 42.1818 89.3059 43.098 88.9522 43.8523C88.5985 44.6065 88.117 45.1818 87.5076 45.5781C86.8983 45.9744 86.2079 46.1726 85.4366 46.1726C84.8741 46.1726 84.4075 46.0788 84.0368 45.8913C83.666 45.7038 83.3677 45.478 83.1419 45.2138C82.9203 44.9453 82.7477 44.6918 82.6241 44.4531H82.5282V49.6818H80.2143ZM82.4835 41.0909C82.4835 41.7259 82.573 42.282 82.752 42.7592C82.9352 43.2365 83.1973 43.6094 83.5382 43.8778C83.8833 44.142 84.301 44.2741 84.791 44.2741C85.3024 44.2741 85.7306 44.1378 86.0758 43.8651C86.421 43.5881 86.6809 43.2109 86.8556 42.7337C87.0346 42.2521 87.1241 41.7045 87.1241 41.0909C87.1241 40.4815 87.0368 39.9403 86.862 39.4673C86.6873 38.9943 86.4274 38.6236 86.0822 38.3551C85.737 38.0866 85.3066 37.9524 84.791 37.9524C84.2967 37.9524 83.877 38.0824 83.5318 38.3423C83.1866 38.6023 82.9245 38.9666 82.7456 39.4354C82.5708 39.9041 82.4835 40.456 82.4835 41.0909ZM91.4643 49.6818V36.1818H93.7399V37.8054H93.8741C93.9934 37.5668 94.1618 37.3132 94.3791 37.0447C94.5964 36.772 94.8904 36.5398 95.2612 36.348C95.6319 36.152 96.1049 36.054 96.6802 36.054C97.4387 36.054 98.1227 36.2479 98.7321 36.6357C99.3457 37.0192 99.8315 37.5881 100.189 38.3423C100.552 39.0923 100.733 40.0128 100.733 41.1037C100.733 42.1818 100.556 43.098 100.202 43.8523C99.8485 44.6065 99.367 45.1818 98.7576 45.5781C98.1483 45.9744 97.4579 46.1726 96.6866 46.1726C96.1241 46.1726 95.6575 46.0788 95.2868 45.8913C94.916 45.7038 94.6177 45.478 94.3919 45.2138C94.1703 44.9453 93.9977 44.6918 93.8741 44.4531H93.7782V49.6818H91.4643ZM93.7335 41.0909C93.7335 41.7259 93.823 42.282 94.002 42.7592C94.1852 43.2365 94.4473 43.6094 94.7882 43.8778C95.1333 44.142 95.551 44.2741 96.041 44.2741C96.5524 44.2741 96.9806 44.1378 97.3258 43.8651C97.671 43.5881 97.9309 43.2109 98.1056 42.7337C98.2846 42.2521 98.3741 41.7045 98.3741 41.0909C98.3741 40.4815 98.2868 39.9403 98.112 39.4673C97.9373 38.9943 97.6774 38.6236 97.3322 38.3551C96.987 38.0866 96.5566 37.9524 96.041 37.9524C95.5467 37.9524 95.127 38.0824 94.7818 38.3423C94.4366 38.6023 94.1745 38.9666 93.9956 39.4354C93.8208 39.9041 93.7335 40.456 93.7335 41.0909ZM114.396 36.5078C114.336 35.9496 114.085 35.5149 113.642 35.2038C113.203 34.8928 112.632 34.7372 111.928 34.7372C111.434 34.7372 111.01 34.8118 110.656 34.9609C110.303 35.1101 110.032 35.3125 109.845 35.5682C109.657 35.8239 109.561 36.1158 109.557 36.4439C109.557 36.7166 109.619 36.9531 109.742 37.1534C109.87 37.3537 110.043 37.5241 110.26 37.6648C110.477 37.8011 110.718 37.9162 110.982 38.0099C111.247 38.1037 111.513 38.1825 111.781 38.2464L113.009 38.5533C113.503 38.6683 113.978 38.8239 114.434 39.0199C114.894 39.2159 115.306 39.4631 115.668 39.7614C116.034 40.0597 116.324 40.4197 116.537 40.8416C116.75 41.2635 116.857 41.7578 116.857 42.3246C116.857 43.0916 116.661 43.767 116.269 44.3509C115.877 44.9304 115.31 45.3842 114.568 45.7124C113.831 46.0362 112.938 46.1982 111.89 46.1982C110.872 46.1982 109.987 46.0405 109.237 45.7251C108.492 45.4098 107.908 44.9496 107.486 44.3445C107.068 43.7393 106.843 43.0021 106.808 42.1328H109.142C109.176 42.5888 109.316 42.968 109.563 43.2706C109.811 43.5732 110.132 43.799 110.529 43.9482C110.929 44.0973 111.377 44.1719 111.871 44.1719C112.387 44.1719 112.838 44.0952 113.226 43.9418C113.618 43.7841 113.925 43.5668 114.146 43.2898C114.368 43.0085 114.481 42.6804 114.485 42.3054C114.481 41.9645 114.381 41.6832 114.185 41.4616C113.989 41.2358 113.714 41.0483 113.36 40.8991C113.011 40.7457 112.602 40.6094 112.133 40.4901L110.644 40.1065C109.566 39.8295 108.713 39.4098 108.087 38.8473C107.465 38.2805 107.154 37.5284 107.154 36.5909C107.154 35.8196 107.362 35.1442 107.78 34.5646C108.202 33.9851 108.775 33.5355 109.499 33.2159C110.224 32.892 111.044 32.7301 111.96 32.7301C112.889 32.7301 113.703 32.892 114.402 33.2159C115.105 33.5355 115.657 33.9808 116.058 34.5518C116.458 35.1186 116.665 35.7706 116.678 36.5078H114.396ZM123.771 36.1818V37.9716H118.127V36.1818H123.771ZM119.521 33.8295H121.835V43.0469C121.835 43.358 121.881 43.5966 121.975 43.7628C122.073 43.9247 122.201 44.0355 122.359 44.0952C122.516 44.1548 122.691 44.1847 122.883 44.1847C123.028 44.1847 123.16 44.174 123.279 44.1527C123.403 44.1314 123.496 44.1122 123.56 44.0952L123.95 45.9041C123.827 45.9467 123.65 45.9936 123.42 46.0447C123.194 46.0959 122.917 46.1257 122.589 46.1342C122.009 46.1513 121.487 46.0639 121.023 45.8722C120.558 45.6761 120.19 45.3736 119.917 44.9645C119.648 44.5554 119.516 44.044 119.521 43.4304V33.8295ZM129.884 46.1918C128.925 46.1918 128.094 45.9808 127.391 45.5589C126.688 45.1371 126.142 44.5469 125.754 43.7884C125.371 43.0298 125.179 42.1435 125.179 41.1293C125.179 40.1151 125.371 39.2266 125.754 38.4638C126.142 37.701 126.688 37.1087 127.391 36.6868C128.094 36.2649 128.925 36.054 129.884 36.054C130.843 36.054 131.673 36.2649 132.377 36.6868C133.08 37.1087 133.623 37.701 134.007 38.4638C134.394 39.2266 134.588 40.1151 134.588 41.1293C134.588 42.1435 134.394 43.0298 134.007 43.7884C133.623 44.5469 133.08 45.1371 132.377 45.5589C131.673 45.9808 130.843 46.1918 129.884 46.1918ZM129.896 44.3381C130.416 44.3381 130.851 44.1953 131.2 43.9098C131.55 43.62 131.81 43.2322 131.98 42.7464C132.155 42.2607 132.242 41.7195 132.242 41.1229C132.242 40.522 132.155 39.9787 131.98 39.4929C131.81 39.0028 131.55 38.6129 131.2 38.3232C130.851 38.0334 130.416 37.8885 129.896 37.8885C129.364 37.8885 128.921 38.0334 128.567 38.3232C128.218 38.6129 127.955 39.0028 127.781 39.4929C127.61 39.9787 127.525 40.522 127.525 41.1229C127.525 41.7195 127.61 42.2607 127.781 42.7464C127.955 43.2322 128.218 43.62 128.567 43.9098C128.921 44.1953 129.364 44.3381 129.896 44.3381ZM136.552 46V36.1818H138.796V37.8182H138.898C139.077 37.2514 139.384 36.8146 139.819 36.5078C140.257 36.1967 140.758 36.0412 141.321 36.0412C141.449 36.0412 141.591 36.0476 141.749 36.0604C141.911 36.0689 142.045 36.0838 142.152 36.1051V38.2337C142.054 38.1996 141.898 38.1697 141.685 38.1442C141.476 38.1143 141.274 38.0994 141.078 38.0994C140.656 38.0994 140.277 38.1911 139.94 38.3743C139.608 38.5533 139.346 38.8026 139.154 39.1222C138.962 39.4418 138.866 39.8104 138.866 40.228V46H136.552ZM147.631 46.1918C146.647 46.1918 145.797 45.9872 145.081 45.5781C144.369 45.1648 143.822 44.581 143.438 43.8267C143.055 43.0682 142.863 42.1754 142.863 41.1484C142.863 40.1385 143.055 39.2521 143.438 38.4893C143.826 37.7223 144.367 37.1257 145.062 36.6996C145.756 36.2692 146.572 36.054 147.51 36.054C148.115 36.054 148.686 36.152 149.223 36.348C149.764 36.5398 150.241 36.8381 150.655 37.2429C151.072 37.6477 151.4 38.1634 151.639 38.7898C151.878 39.4119 151.997 40.1534 151.997 41.0142V41.7237H143.949V40.1641H149.779C149.775 39.7209 149.679 39.3267 149.491 38.9815C149.304 38.6321 149.042 38.3572 148.705 38.157C148.373 37.9567 147.985 37.8565 147.542 37.8565C147.069 37.8565 146.653 37.9716 146.295 38.2017C145.937 38.4276 145.658 38.7259 145.458 39.0966C145.262 39.4631 145.162 39.8658 145.157 40.3047V41.6662C145.157 42.2372 145.262 42.7273 145.471 43.1364C145.68 43.5412 145.971 43.8523 146.346 44.0696C146.721 44.2827 147.16 44.3892 147.663 44.3892C148 44.3892 148.305 44.3423 148.577 44.2486C148.85 44.1506 149.086 44.0078 149.287 43.8203C149.487 43.6328 149.638 43.4006 149.741 43.1236L151.901 43.3665C151.765 43.9375 151.505 44.4361 151.121 44.8622C150.742 45.2841 150.256 45.6122 149.664 45.8466C149.072 46.0767 148.394 46.1918 147.631 46.1918Z" fill="white"/>
<path d="M18 4H165V0H18V4ZM179 18V50H183V18H179ZM165 64H18V68H165V64ZM4 50V18H0V50H4ZM18 64C10.268 64 4 57.732 4 50H0C0 59.9411 8.05887 68 18 68V64ZM179 50C179 57.732 172.732 64 165 64V68C174.941 68 183 59.9411 183 50H179ZM165 4C172.732 4 179 10.268 179 18H183C183 8.05888 174.941 0 165 0V4ZM18 0C8.05887 0 0 8.05887 0 18H4C4 10.268 10.268 4 18 4V0Z" fill="white"/>
</svg>
