<svg width="179" height="64" viewBox="0 0 179 64" fill="none" xmlns="http://www.w3.org/2000/svg">
<rect width="179" height="64" fill="white"/>
<path d="M48.229 32.0665C48.2151 29.6824 49.2953 27.8856 51.4766 26.5607C50.2566 24.8128 48.4108 23.8515 45.9778 23.6662C43.6741 23.4844 41.1536 25.0086 40.2307 25.0086C39.2554 25.0086 37.0251 23.7292 35.2703 23.7292C31.6486 23.7851 27.7998 26.6167 27.7998 32.3777C27.7998 34.0801 28.1109 35.8385 28.7332 37.6493C29.5652 40.0334 32.5645 45.8748 35.6932 45.7804C37.3293 45.742 38.4864 44.6198 40.6153 44.6198C42.6813 44.6198 43.751 45.7804 45.5758 45.7804C48.7324 45.735 51.4451 40.4249 52.2352 38.0338C48.0018 36.0377 48.229 32.1889 48.229 32.0665V32.0665ZM44.555 21.4045C46.3273 19.3 46.1665 17.3843 46.1141 16.6957C44.548 16.7866 42.7372 17.7619 41.706 18.9609C40.5698 20.2474 39.9021 21.8379 40.0455 23.6313C41.7374 23.7606 43.2825 22.8902 44.555 21.4045V21.4045Z" fill="#050506"/>
<path d="M69.7209 21.0249C69.6522 20.8094 69.5599 20.6165 69.4439 20.446C69.3303 20.2732 69.1941 20.1264 69.0355 20.0057C68.8769 19.8826 68.6958 19.7891 68.4922 19.7251C68.291 19.6612 68.0696 19.6293 67.8281 19.6293C67.4186 19.6293 67.0492 19.7346 66.7202 19.9453C66.3911 20.156 66.1307 20.465 65.9389 20.8722C65.7495 21.277 65.6548 21.773 65.6548 22.3601C65.6548 22.9496 65.7507 23.4479 65.9425 23.8551C66.1342 24.2623 66.397 24.5713 66.7308 24.782C67.0646 24.9927 67.4446 25.098 67.8707 25.098C68.2661 25.098 68.6106 25.0175 68.9041 24.8565C69.2 24.6955 69.4285 24.4683 69.5895 24.1747C69.7528 23.8788 69.8345 23.5308 69.8345 23.1307L70.1186 23.1839H68.0376V22.2784H70.8963V23.1058C70.8963 23.7166 70.7661 24.2469 70.5057 24.6967C70.2476 25.1442 69.8902 25.4898 69.4332 25.7337C68.9787 25.9775 68.4579 26.0994 67.8707 26.0994C67.2126 26.0994 66.6349 25.9479 66.1378 25.6449C65.643 25.3419 65.2571 24.9122 64.9801 24.3558C64.7031 23.7971 64.5646 23.1342 64.5646 22.3672C64.5646 21.7872 64.6451 21.2663 64.8061 20.8047C64.9671 20.343 65.1932 19.9512 65.4844 19.6293C65.7779 19.3049 66.1224 19.0575 66.5178 18.8871C66.9155 18.7143 67.3499 18.6278 67.821 18.6278C68.214 18.6278 68.5798 18.6858 68.9183 18.8018C69.2592 18.9179 69.5623 19.0824 69.8274 19.2955C70.0949 19.5085 70.3163 19.7618 70.4915 20.0554C70.6667 20.3466 70.785 20.6697 70.8466 21.0249H69.7209ZM74.5549 26.1101C74.0175 26.1101 73.5546 25.9953 73.1664 25.7656C72.7805 25.5336 72.4822 25.2081 72.2715 24.7891C72.0632 24.3677 71.959 23.8741 71.959 23.3082C71.959 22.7495 72.0632 22.2571 72.2715 21.831C72.4822 21.4048 72.7757 21.0722 73.1522 20.8331C73.531 20.594 73.9737 20.4744 74.4803 20.4744C74.7881 20.4744 75.0864 20.5253 75.3752 20.6271C75.664 20.7289 75.9232 20.8887 76.1529 21.1065C76.3825 21.3243 76.5636 21.6072 76.6962 21.9553C76.8288 22.3009 76.8951 22.7211 76.8951 23.2159V23.5923H72.5591V22.7969H75.8546C75.8546 22.5175 75.7978 22.2701 75.6841 22.0547C75.5705 21.8369 75.4107 21.6652 75.2047 21.5398C75.0011 21.4143 74.762 21.3516 74.4874 21.3516C74.1891 21.3516 73.9287 21.425 73.7061 21.5717C73.486 21.7161 73.3155 21.9055 73.1948 22.1399C73.0764 22.3719 73.0172 22.6241 73.0172 22.8963V23.5178C73.0172 23.8823 73.0811 24.1925 73.209 24.4482C73.3392 24.7038 73.5203 24.8991 73.7523 25.0341C73.9843 25.1667 74.2554 25.233 74.5655 25.233C74.7667 25.233 74.9502 25.2045 75.1159 25.1477C75.2817 25.0885 75.4249 25.0009 75.5456 24.8849C75.6664 24.7689 75.7587 24.6257 75.8226 24.4553L76.8276 24.6364C76.7471 24.9323 76.6027 25.1915 76.3944 25.4141C76.1884 25.6342 75.9292 25.8059 75.6167 25.929C75.3065 26.0497 74.9526 26.1101 74.5549 26.1101ZM80.6193 20.5455V21.3977H77.6399V20.5455H80.6193ZM78.4389 19.2386H79.5007V24.3984C79.5007 24.6044 79.5315 24.7595 79.593 24.8636C79.6546 24.9654 79.7339 25.0353 79.831 25.0732C79.9304 25.1087 80.0381 25.1264 80.1541 25.1264C80.2393 25.1264 80.3139 25.1205 80.3778 25.1087C80.4418 25.0968 80.4915 25.0874 80.527 25.0803L80.7188 25.9574C80.6572 25.9811 80.5696 26.0047 80.456 26.0284C80.3423 26.0545 80.2003 26.0687 80.0298 26.071C79.7505 26.0758 79.4901 26.026 79.2486 25.9219C79.0071 25.8177 78.8118 25.6567 78.6626 25.4389C78.5135 25.2211 78.4389 24.9477 78.4389 24.6186V19.2386ZM90.5661 21.0923H89.4581C89.4155 20.8556 89.3362 20.6473 89.2202 20.4673C89.1042 20.2874 88.9621 20.1347 88.794 20.0092C88.6259 19.8838 88.4377 19.7891 88.2294 19.7251C88.0234 19.6612 87.8045 19.6293 87.5724 19.6293C87.1534 19.6293 86.7782 19.7346 86.4467 19.9453C86.1177 20.156 85.8572 20.465 85.6655 20.8722C85.4761 21.2794 85.3814 21.7765 85.3814 22.3636C85.3814 22.9555 85.4761 23.455 85.6655 23.8622C85.8572 24.2694 86.1188 24.5772 86.4503 24.7855C86.7817 24.9938 87.1546 25.098 87.5689 25.098C87.7985 25.098 88.0163 25.0672 88.2223 25.0057C88.4306 24.9418 88.6188 24.8482 88.7869 24.7251C88.955 24.602 89.0971 24.4517 89.2131 24.2741C89.3314 24.0942 89.4131 23.8883 89.4581 23.6562L90.5661 23.6598C90.5069 24.0173 90.392 24.3464 90.2216 24.647C90.0535 24.9453 89.8369 25.2034 89.5717 25.4212C89.3089 25.6366 89.0083 25.8035 88.6697 25.9219C88.3312 26.0402 87.9619 26.0994 87.5618 26.0994C86.9321 26.0994 86.371 25.9503 85.8786 25.652C85.3861 25.3513 84.9979 24.9216 84.7138 24.3629C84.4321 23.8042 84.2912 23.1378 84.2912 22.3636C84.2912 21.5871 84.4332 20.9207 84.7173 20.3643C85.0014 19.8056 85.3897 19.3771 85.8821 19.0788C86.3745 18.7782 86.9344 18.6278 87.5618 18.6278C87.9477 18.6278 88.3075 18.6835 88.6413 18.7947C88.9775 18.9036 89.2794 19.0646 89.5469 19.2777C89.8144 19.4884 90.0357 19.7464 90.2109 20.0518C90.3861 20.3549 90.5045 20.7017 90.5661 21.0923ZM92.4446 26H91.2798L93.897 18.7273H95.1648L97.782 26H96.6172L94.5611 20.0483H94.5043L92.4446 26ZM92.6399 23.152H96.4183V24.0753H92.6399V23.152ZM98.8322 18.7273H100.164L102.479 24.3807H102.564L104.88 18.7273H106.211V26H105.167V20.7372H105.1L102.955 25.9893H102.089L99.9437 20.7337H99.8762V26H98.8322V18.7273ZM112.666 26.1101C112.154 26.1101 111.708 25.9929 111.327 25.7585C110.946 25.5241 110.65 25.1963 110.439 24.7749C110.228 24.3535 110.123 23.861 110.123 23.2976C110.123 22.7318 110.228 22.237 110.439 21.8132C110.65 21.3894 110.946 21.0604 111.327 20.826C111.708 20.5916 112.154 20.4744 112.666 20.4744C113.177 20.4744 113.623 20.5916 114.004 20.826C114.386 21.0604 114.682 21.3894 114.892 21.8132C115.103 22.237 115.208 22.7318 115.208 23.2976C115.208 23.861 115.103 24.3535 114.892 24.7749C114.682 25.1963 114.386 25.5241 114.004 25.7585C113.623 25.9929 113.177 26.1101 112.666 26.1101ZM112.669 25.2188C113.001 25.2188 113.275 25.1312 113.493 24.956C113.711 24.7808 113.872 24.5476 113.976 24.2564C114.083 23.9652 114.136 23.6444 114.136 23.294C114.136 22.946 114.083 22.6264 113.976 22.3352C113.872 22.0417 113.711 21.8061 113.493 21.6286C113.275 21.451 113.001 21.3622 112.669 21.3622C112.335 21.3622 112.058 21.451 111.838 21.6286C111.62 21.8061 111.458 22.0417 111.352 22.3352C111.248 22.6264 111.195 22.946 111.195 23.294C111.195 23.6444 111.248 23.9652 111.352 24.2564C111.458 24.5476 111.62 24.7808 111.838 24.956C112.058 25.1312 112.335 25.2188 112.669 25.2188ZM117.455 22.7614V26H116.393V20.5455H117.413V21.4332H117.48C117.606 21.1444 117.802 20.9124 118.07 20.7372C118.339 20.562 118.679 20.4744 119.089 20.4744C119.46 20.4744 119.786 20.5526 120.065 20.7088C120.345 20.8627 120.561 21.0923 120.715 21.3977C120.869 21.7031 120.946 22.0807 120.946 22.5305V26H119.884V22.6584C119.884 22.263 119.781 21.9541 119.575 21.7315C119.369 21.5066 119.086 21.3942 118.727 21.3942C118.48 21.3942 118.261 21.4474 118.07 21.554C117.88 21.6605 117.73 21.8168 117.619 22.0227C117.51 22.2263 117.455 22.4725 117.455 22.7614ZM127.563 20.5455V21.3977H124.583V20.5455H127.563ZM125.382 19.2386H126.444V24.3984C126.444 24.6044 126.475 24.7595 126.536 24.8636C126.598 24.9654 126.677 25.0353 126.774 25.0732C126.874 25.1087 126.981 25.1264 127.097 25.1264C127.183 25.1264 127.257 25.1205 127.321 25.1087C127.385 25.0968 127.435 25.0874 127.47 25.0803L127.662 25.9574C127.601 25.9811 127.513 26.0047 127.399 26.0284C127.286 26.0545 127.144 26.0687 126.973 26.071C126.694 26.0758 126.433 26.026 126.192 25.9219C125.95 25.8177 125.755 25.6567 125.606 25.4389C125.457 25.2211 125.382 24.9477 125.382 24.6186V19.2386ZM129.916 22.7614V26H128.854V18.7273H129.902V21.4332H129.969C130.097 21.1397 130.293 20.9065 130.555 20.7337C130.818 20.5608 131.161 20.4744 131.585 20.4744C131.959 20.4744 132.286 20.5514 132.565 20.7053C132.847 20.8591 133.065 21.0888 133.219 21.3942C133.375 21.6972 133.453 22.076 133.453 22.5305V26H132.391V22.6584C132.391 22.2583 132.288 21.9482 132.082 21.728C131.876 21.5054 131.59 21.3942 131.223 21.3942C130.972 21.3942 130.747 21.4474 130.548 21.554C130.352 21.6605 130.197 21.8168 130.083 22.0227C129.972 22.2263 129.916 22.4725 129.916 22.7614ZM137.221 26.1101C136.683 26.1101 136.221 25.9953 135.832 25.7656C135.446 25.5336 135.148 25.2081 134.938 24.7891C134.729 24.3677 134.625 23.8741 134.625 23.3082C134.625 22.7495 134.729 22.2571 134.938 21.831C135.148 21.4048 135.442 21.0722 135.818 20.8331C136.197 20.594 136.64 20.4744 137.146 20.4744C137.454 20.4744 137.752 20.5253 138.041 20.6271C138.33 20.7289 138.589 20.8887 138.819 21.1065C139.049 21.3243 139.23 21.6072 139.362 21.9553C139.495 22.3009 139.561 22.7211 139.561 23.2159V23.5923H135.225V22.7969H138.521C138.521 22.5175 138.464 22.2701 138.35 22.0547C138.237 21.8369 138.077 21.6652 137.871 21.5398C137.667 21.4143 137.428 21.3516 137.153 21.3516C136.855 21.3516 136.595 21.425 136.372 21.5717C136.152 21.7161 135.982 21.9055 135.861 22.1399C135.742 22.3719 135.683 22.6241 135.683 22.8963V23.5178C135.683 23.8823 135.747 24.1925 135.875 24.4482C136.005 24.7038 136.186 24.8991 136.418 25.0341C136.65 25.1667 136.921 25.233 137.232 25.233C137.433 25.233 137.616 25.2045 137.782 25.1477C137.948 25.0885 138.091 25.0009 138.212 24.8849C138.332 24.7689 138.425 24.6257 138.489 24.4553L139.494 24.6364C139.413 24.9323 139.269 25.1915 139.06 25.4141C138.854 25.6342 138.595 25.8059 138.283 25.929C137.973 26.0497 137.619 26.1101 137.221 26.1101Z" fill="#050506"/>
<path d="M66.9723 44H64.4411L69.0497 30.9091H71.9773L76.5923 44H74.0611L70.5646 33.5938H70.4624L66.9723 44ZM67.0554 38.8672H73.9588V40.772H67.0554V38.8672ZM78.2143 47.6818V34.1818H80.4899V35.8054H80.6241C80.7434 35.5668 80.9118 35.3132 81.1291 35.0447C81.3464 34.772 81.6404 34.5398 82.0112 34.348C82.3819 34.152 82.8549 34.054 83.4302 34.054C84.1887 34.054 84.8727 34.2479 85.4821 34.6357C86.0957 35.0192 86.5815 35.5881 86.9395 36.3423C87.3017 37.0923 87.4828 38.0128 87.4828 39.1037C87.4828 40.1818 87.3059 41.098 86.9522 41.8523C86.5985 42.6065 86.117 43.1818 85.5076 43.5781C84.8983 43.9744 84.2079 44.1726 83.4366 44.1726C82.8741 44.1726 82.4075 44.0788 82.0368 43.8913C81.666 43.7038 81.3677 43.478 81.1419 43.2138C80.9203 42.9453 80.7477 42.6918 80.6241 42.4531H80.5282V47.6818H78.2143ZM80.4835 39.0909C80.4835 39.7259 80.573 40.282 80.752 40.7592C80.9352 41.2365 81.1973 41.6094 81.5382 41.8778C81.8833 42.142 82.301 42.2741 82.791 42.2741C83.3024 42.2741 83.7306 42.1378 84.0758 41.8651C84.421 41.5881 84.6809 41.2109 84.8556 40.7337C85.0346 40.2521 85.1241 39.7045 85.1241 39.0909C85.1241 38.4815 85.0368 37.9403 84.862 37.4673C84.6873 36.9943 84.4274 36.6236 84.0822 36.3551C83.737 36.0866 83.3066 35.9524 82.791 35.9524C82.2967 35.9524 81.877 36.0824 81.5318 36.3423C81.1866 36.6023 80.9245 36.9666 80.7456 37.4354C80.5708 37.9041 80.4835 38.456 80.4835 39.0909ZM89.4643 47.6818V34.1818H91.7399V35.8054H91.8741C91.9934 35.5668 92.1618 35.3132 92.3791 35.0447C92.5964 34.772 92.8904 34.5398 93.2612 34.348C93.6319 34.152 94.1049 34.054 94.6802 34.054C95.4387 34.054 96.1227 34.2479 96.7321 34.6357C97.3457 35.0192 97.8315 35.5881 98.1895 36.3423C98.5517 37.0923 98.7328 38.0128 98.7328 39.1037C98.7328 40.1818 98.5559 41.098 98.2022 41.8523C97.8485 42.6065 97.367 43.1818 96.7576 43.5781C96.1483 43.9744 95.4579 44.1726 94.6866 44.1726C94.1241 44.1726 93.6575 44.0788 93.2868 43.8913C92.916 43.7038 92.6177 43.478 92.3919 43.2138C92.1703 42.9453 91.9977 42.6918 91.8741 42.4531H91.7782V47.6818H89.4643ZM91.7335 39.0909C91.7335 39.7259 91.823 40.282 92.002 40.7592C92.1852 41.2365 92.4473 41.6094 92.7882 41.8778C93.1333 42.142 93.551 42.2741 94.041 42.2741C94.5524 42.2741 94.9806 42.1378 95.3258 41.8651C95.671 41.5881 95.9309 41.2109 96.1056 40.7337C96.2846 40.2521 96.3741 39.7045 96.3741 39.0909C96.3741 38.4815 96.2868 37.9403 96.112 37.4673C95.9373 36.9943 95.6774 36.6236 95.3322 36.3551C94.987 36.0866 94.5566 35.9524 94.041 35.9524C93.5467 35.9524 93.127 36.0824 92.7818 36.3423C92.4366 36.6023 92.1745 36.9666 91.9956 37.4354C91.8208 37.9041 91.7335 38.456 91.7335 39.0909ZM112.396 34.5078C112.336 33.9496 112.085 33.5149 111.642 33.2038C111.203 32.8928 110.632 32.7372 109.928 32.7372C109.434 32.7372 109.01 32.8118 108.656 32.9609C108.303 33.1101 108.032 33.3125 107.845 33.5682C107.657 33.8239 107.561 34.1158 107.557 34.4439C107.557 34.7166 107.619 34.9531 107.742 35.1534C107.87 35.3537 108.043 35.5241 108.26 35.6648C108.477 35.8011 108.718 35.9162 108.982 36.0099C109.247 36.1037 109.513 36.1825 109.781 36.2464L111.009 36.5533C111.503 36.6683 111.978 36.8239 112.434 37.0199C112.894 37.2159 113.306 37.4631 113.668 37.7614C114.034 38.0597 114.324 38.4197 114.537 38.8416C114.75 39.2635 114.857 39.7578 114.857 40.3246C114.857 41.0916 114.661 41.767 114.269 42.3509C113.877 42.9304 113.31 43.3842 112.568 43.7124C111.831 44.0362 110.938 44.1982 109.89 44.1982C108.872 44.1982 107.987 44.0405 107.237 43.7251C106.492 43.4098 105.908 42.9496 105.486 42.3445C105.068 41.7393 104.843 41.0021 104.808 40.1328H107.142C107.176 40.5888 107.316 40.968 107.563 41.2706C107.811 41.5732 108.132 41.799 108.529 41.9482C108.929 42.0973 109.377 42.1719 109.871 42.1719C110.387 42.1719 110.838 42.0952 111.226 41.9418C111.618 41.7841 111.925 41.5668 112.146 41.2898C112.368 41.0085 112.481 40.6804 112.485 40.3054C112.481 39.9645 112.381 39.6832 112.185 39.4616C111.989 39.2358 111.714 39.0483 111.36 38.8991C111.011 38.7457 110.602 38.6094 110.133 38.4901L108.644 38.1065C107.566 37.8295 106.713 37.4098 106.087 36.8473C105.465 36.2805 105.154 35.5284 105.154 34.5909C105.154 33.8196 105.362 33.1442 105.78 32.5646C106.202 31.9851 106.775 31.5355 107.499 31.2159C108.224 30.892 109.044 30.7301 109.96 30.7301C110.889 30.7301 111.703 30.892 112.402 31.2159C113.105 31.5355 113.657 31.9808 114.058 32.5518C114.458 33.1186 114.665 33.7706 114.678 34.5078H112.396ZM121.771 34.1818V35.9716H116.127V34.1818H121.771ZM117.521 31.8295H119.835V41.0469C119.835 41.358 119.881 41.5966 119.975 41.7628C120.073 41.9247 120.201 42.0355 120.359 42.0952C120.516 42.1548 120.691 42.1847 120.883 42.1847C121.028 42.1847 121.16 42.174 121.279 42.1527C121.403 42.1314 121.496 42.1122 121.56 42.0952L121.95 43.9041C121.827 43.9467 121.65 43.9936 121.42 44.0447C121.194 44.0959 120.917 44.1257 120.589 44.1342C120.009 44.1513 119.487 44.0639 119.023 43.8722C118.558 43.6761 118.19 43.3736 117.917 42.9645C117.648 42.5554 117.516 42.044 117.521 41.4304V31.8295ZM127.884 44.1918C126.925 44.1918 126.094 43.9808 125.391 43.5589C124.688 43.1371 124.142 42.5469 123.754 41.7884C123.371 41.0298 123.179 40.1435 123.179 39.1293C123.179 38.1151 123.371 37.2266 123.754 36.4638C124.142 35.701 124.688 35.1087 125.391 34.6868C126.094 34.2649 126.925 34.054 127.884 34.054C128.843 34.054 129.673 34.2649 130.377 34.6868C131.08 35.1087 131.623 35.701 132.007 36.4638C132.394 37.2266 132.588 38.1151 132.588 39.1293C132.588 40.1435 132.394 41.0298 132.007 41.7884C131.623 42.5469 131.08 43.1371 130.377 43.5589C129.673 43.9808 128.843 44.1918 127.884 44.1918ZM127.896 42.3381C128.416 42.3381 128.851 42.1953 129.2 41.9098C129.55 41.62 129.81 41.2322 129.98 40.7464C130.155 40.2607 130.242 39.7195 130.242 39.1229C130.242 38.522 130.155 37.9787 129.98 37.4929C129.81 37.0028 129.55 36.6129 129.2 36.3232C128.851 36.0334 128.416 35.8885 127.896 35.8885C127.364 35.8885 126.921 36.0334 126.567 36.3232C126.218 36.6129 125.955 37.0028 125.781 37.4929C125.61 37.9787 125.525 38.522 125.525 39.1229C125.525 39.7195 125.61 40.2607 125.781 40.7464C125.955 41.2322 126.218 41.62 126.567 41.9098C126.921 42.1953 127.364 42.3381 127.896 42.3381ZM134.552 44V34.1818H136.796V35.8182H136.898C137.077 35.2514 137.384 34.8146 137.819 34.5078C138.257 34.1967 138.758 34.0412 139.321 34.0412C139.449 34.0412 139.591 34.0476 139.749 34.0604C139.911 34.0689 140.045 34.0838 140.152 34.1051V36.2337C140.054 36.1996 139.898 36.1697 139.685 36.1442C139.476 36.1143 139.274 36.0994 139.078 36.0994C138.656 36.0994 138.277 36.1911 137.94 36.3743C137.608 36.5533 137.346 36.8026 137.154 37.1222C136.962 37.4418 136.866 37.8104 136.866 38.228V44H134.552ZM145.631 44.1918C144.647 44.1918 143.797 43.9872 143.081 43.5781C142.369 43.1648 141.822 42.581 141.438 41.8267C141.055 41.0682 140.863 40.1754 140.863 39.1484C140.863 38.1385 141.055 37.2521 141.438 36.4893C141.826 35.7223 142.367 35.1257 143.062 34.6996C143.756 34.2692 144.572 34.054 145.51 34.054C146.115 34.054 146.686 34.152 147.223 34.348C147.764 34.5398 148.241 34.8381 148.655 35.2429C149.072 35.6477 149.4 36.1634 149.639 36.7898C149.878 37.4119 149.997 38.1534 149.997 39.0142V39.7237H141.949V38.1641H147.779C147.775 37.7209 147.679 37.3267 147.491 36.9815C147.304 36.6321 147.042 36.3572 146.705 36.157C146.373 35.9567 145.985 35.8565 145.542 35.8565C145.069 35.8565 144.653 35.9716 144.295 36.2017C143.937 36.4276 143.658 36.7259 143.458 37.0966C143.262 37.4631 143.162 37.8658 143.157 38.3047V39.6662C143.157 40.2372 143.262 40.7273 143.471 41.1364C143.68 41.5412 143.971 41.8523 144.346 42.0696C144.721 42.2827 145.16 42.3892 145.663 42.3892C146 42.3892 146.305 42.3423 146.577 42.2486C146.85 42.1506 147.086 42.0078 147.287 41.8203C147.487 41.6328 147.638 41.4006 147.741 41.1236L149.901 41.3665C149.765 41.9375 149.505 42.4361 149.121 42.8622C148.742 43.2841 148.256 43.6122 147.664 43.8466C147.072 44.0767 146.394 44.1918 145.631 44.1918Z" fill="#050506"/>
</svg>
