<svg width="27" height="16" viewBox="0 0 27 16" fill="none" xmlns="http://www.w3.org/2000/svg">
<path fill-rule="evenodd" clip-rule="evenodd" d="M9.47069 0.277376C9.11988 -0.078911 8.53549 -0.0939541 8.16542 0.243776L0.475734 7.26135C0.041186 7.65792 0.0411863 8.34208 0.475734 8.73865L8.16542 15.7562C8.53549 16.094 9.11988 16.0789 9.47069 15.7226C9.82149 15.3663 9.80586 14.8037 9.43579 14.466L2.35051 8L9.43579 1.53401C9.80586 1.19627 9.82149 0.633663 9.47069 0.277376Z" fill="url(#paint0_linear_1584_6770)"/>
<path d="M14.6455 7.99989C14.6455 7.50897 14.2322 7.111 13.7222 7.111H2.90653C2.39661 7.111 1.98324 7.50897 1.98324 7.99989C1.98324 8.49081 2.39661 8.88878 2.90653 8.88878H13.7222C14.2322 8.88878 14.6455 8.49081 14.6455 7.99989Z" fill="url(#paint1_linear_1584_6770)"/>
<path d="M19.5155 7.99989C19.5155 7.50897 19.1021 7.111 18.5922 7.111H16.5427C16.0328 7.111 15.6194 7.50897 15.6194 7.99989C15.6194 8.49081 16.0328 8.88878 16.5427 8.88878H18.5922C19.1021 8.88878 19.5155 8.49081 19.5155 7.99989Z" fill="url(#paint2_linear_1584_6770)"/>
<path d="M23.4106 7.99989C23.4106 7.50897 22.9973 7.111 22.4873 7.111H21.4118C20.9019 7.111 20.4886 7.50897 20.4886 7.99989C20.4886 8.49081 20.9019 8.88878 21.4118 8.88878H22.4873C22.9973 8.88878 23.4106 8.49081 23.4106 7.99989Z" fill="url(#paint3_linear_1584_6770)"/>
<path d="M26.333 7.99989C26.333 7.50897 25.9196 7.111 25.4097 7.111H25.3083C24.7983 7.111 24.385 7.50897 24.385 7.99989C24.385 8.49081 24.7983 8.88878 25.3083 8.88878H25.4097C25.9196 8.88878 26.333 8.49081 26.333 7.99989Z" fill="url(#paint4_linear_1584_6770)"/>
<defs>
<linearGradient id="paint0_linear_1584_6770" x1="26.333" y1="7.99998" x2="-0.33366" y2="7.99998" gradientUnits="userSpaceOnUse">
<stop stop-color="#A180F7"/>
<stop offset="1" stop-color="#E87CF7"/>
<stop offset="1" stop-color="#E87CF7"/>
</linearGradient>
<linearGradient id="paint1_linear_1584_6770" x1="26.333" y1="7.99998" x2="-0.33366" y2="7.99998" gradientUnits="userSpaceOnUse">
<stop stop-color="#A180F7"/>
<stop offset="1" stop-color="#E87CF7"/>
<stop offset="1" stop-color="#E87CF7"/>
</linearGradient>
<linearGradient id="paint2_linear_1584_6770" x1="26.333" y1="7.99998" x2="-0.33366" y2="7.99998" gradientUnits="userSpaceOnUse">
<stop stop-color="#A180F7"/>
<stop offset="1" stop-color="#E87CF7"/>
<stop offset="1" stop-color="#E87CF7"/>
</linearGradient>
<linearGradient id="paint3_linear_1584_6770" x1="26.333" y1="7.99998" x2="-0.33366" y2="7.99998" gradientUnits="userSpaceOnUse">
<stop stop-color="#A180F7"/>
<stop offset="1" stop-color="#E87CF7"/>
<stop offset="1" stop-color="#E87CF7"/>
</linearGradient>
<linearGradient id="paint4_linear_1584_6770" x1="26.333" y1="7.99998" x2="-0.33366" y2="7.99998" gradientUnits="userSpaceOnUse">
<stop stop-color="#A180F7"/>
<stop offset="1" stop-color="#E87CF7"/>
<stop offset="1" stop-color="#E87CF7"/>
</linearGradient>
</defs>
</svg>
