<svg width="120" height="62" viewBox="0 0 120 62" fill="none" xmlns="http://www.w3.org/2000/svg">
<path fill-rule="evenodd" clip-rule="evenodd" d="M78.4959 32.6717C77.5431 33.5837 77.5028 35.1032 78.4058 36.0655C79.3088 37.0278 80.8133 37.0686 81.766 36.1565L85.6065 32.4801C85.3112 40.4848 80.2315 44.4872 70.3672 44.4872H63.7304V60.716H54.6485V19.0856H69.9597C77.7664 19.0856 82.6544 21.4418 84.6237 26.154V19.0856H92.6884L78.4959 32.6717ZM99.599 19.0856L115.208 4.14311C116.161 3.23104 116.202 1.71156 115.299 0.749249C114.395 -0.213063 112.891 -0.253797 111.938 0.65827L92.6884 19.0856H99.599ZM105.466 43.7892V27.2H117.225V19.0856H99.599L91.1223 27.2H85.001C85.4138 28.5426 85.6202 30.0518 85.6202 31.7276C85.6202 31.9823 85.6156 32.2331 85.6065 32.4801L91.1223 27.2H96.3836V40.1715L96.3792 40.1757L93.6154 42.8214C92.6627 43.7334 92.6223 45.2529 93.5254 46.2152C94.282 47.0215 95.4608 47.1808 96.3836 46.6748V60.716H105.466V50.4044L119.258 37.2012C120.211 36.2891 120.251 34.7696 119.348 33.8073C118.445 32.845 116.941 32.8043 115.988 33.7164L105.466 43.7892ZM105.466 43.7892V50.4044L104.04 51.7687C103.088 52.6808 101.583 52.64 100.68 51.6777C99.7771 50.7154 99.8175 49.1959 100.77 48.2839L105.466 43.7892ZM96.3836 46.6748V40.1715C97.3366 39.2638 98.8378 39.3059 99.7394 40.2667C100.642 41.229 100.602 42.7485 99.6494 43.6605L96.8856 46.3062C96.7311 46.4541 96.5622 46.5769 96.3836 46.6748ZM94.2803 8.55771C93.3773 7.5954 93.4176 6.07591 94.3704 5.16385L96.7722 2.86472C97.725 1.95265 99.2294 1.99339 100.132 2.9557C101.035 3.91801 100.995 5.43749 100.042 6.34956L97.6406 8.64869C96.6878 9.56075 95.1834 9.52002 94.2803 8.55771ZM50.7352 22.3784L44.5059 29.258C43.8073 28.3564 42.837 27.6704 41.595 27.2C40.353 26.7296 39.1305 26.4944 37.9273 26.4944C36.4137 26.4944 35.0164 26.8668 33.7356 27.6116C32.4549 28.3172 31.8145 29.3756 31.8145 30.7868C31.8145 31.806 32.1638 32.6684 32.8624 33.374C33.561 34.0404 34.4537 34.5892 35.5404 35.0204C36.6659 35.4124 37.9079 35.8044 39.2663 36.1964C40.6247 36.5492 41.9831 37 43.3415 37.5488C44.3553 37.9584 45.2934 38.4443 46.1558 39.0067L44.0376 41.0343C43.0849 41.9464 43.0445 43.4659 43.9476 44.4282C44.8506 45.3905 46.355 45.4312 47.3078 44.5191L49.4792 42.4405C49.5712 42.6082 49.6599 42.7808 49.7455 42.9584C50.4441 44.4088 50.7934 46.114 50.7934 48.074C50.7934 52.5036 49.2797 55.8944 46.2524 58.2464C43.2251 60.5984 39.441 61.7744 34.9 61.7744C29.3887 61.7744 24.7701 60.03 21.0442 56.5412L27.5064 49.3676C28.4379 50.5828 29.6022 51.5432 30.9994 52.2488C32.4355 52.9544 33.9103 53.3072 35.424 53.3072C37.0541 53.3072 38.5095 52.9348 39.7903 52.19C41.0711 51.406 41.7114 50.328 41.7114 48.956C41.7114 47.78 41.2263 46.7804 40.256 45.9572C39.3245 45.134 38.1408 44.5264 36.7047 44.1344C35.2687 43.7424 33.7162 43.2328 32.0473 42.6056C30.3784 41.9784 28.826 41.2924 27.3899 40.5476C27.0388 40.3655 26.7017 40.16 26.3784 39.931L30.109 36.3599C31.0618 35.4478 31.1021 33.9283 30.199 32.966C29.296 32.0037 27.7916 31.963 26.8388 32.875L23.3161 36.2473C22.6942 34.8782 22.3832 33.3128 22.3832 31.5512C22.3832 27.3176 23.9163 24.0052 26.9824 21.614C30.0874 19.2228 33.7939 18.0272 38.102 18.0272C43.2639 18.0272 47.475 19.4776 50.7352 22.3784ZM23.3161 36.2473C23.4553 36.5537 23.6101 36.8504 23.7805 37.1372C24.5135 38.2922 25.3795 39.2235 26.3784 39.931L4.01199 61.3417C3.05921 62.2538 1.55478 62.2131 0.65175 61.2508C-0.251281 60.2884 -0.210954 58.769 0.741825 57.8569L23.3161 36.2473ZM49.4792 42.4405L50.7492 41.2248C51.7019 40.3128 51.7423 38.7933 50.8392 37.831C49.9362 36.8687 48.4318 36.8279 47.479 37.74L46.1558 39.0067C46.449 39.1979 46.7335 39.3979 47.0092 39.6068C47.9969 40.2948 48.8203 41.2394 49.4792 42.4405ZM63.7304 26.8472V36.7256H69.785C74.0543 36.7256 76.189 35.0596 76.189 31.7276C76.189 28.474 73.5886 26.8472 68.3878 26.8472H63.7304Z" fill="url(#paint0_linear_1165_14879)"/>
<defs>
<linearGradient id="paint0_linear_1165_14879" x1="-7.1589" y1="42.8907" x2="133.533" y2="42.8907" gradientUnits="userSpaceOnUse">
<stop stop-color="#C4C4C4"/>
<stop offset="0.0001" stop-color="#F578D2"/>
<stop offset="1" stop-color="#346BF9"/>
</linearGradient>
</defs>
</svg>
