<svg width="65" height="32" viewBox="0 0 65 32" fill="none" xmlns="http://www.w3.org/2000/svg">
<path fill-rule="evenodd" clip-rule="evenodd" d="M42.5186 16.8628C42.0025 17.3335 41.9807 18.1178 42.4698 18.6145C42.959 19.1111 43.7739 19.1322 44.2899 18.6614L46.3702 16.7639C46.2103 20.8954 43.4587 22.9611 38.1156 22.9611H34.5206V31.3373H29.6013V9.85064H37.8948C42.1235 9.85064 44.7711 11.0667 45.8378 13.4989V9.85064H50.2062L42.5186 16.8628ZM53.9494 9.85064L62.4046 2.13838C62.9207 1.66764 62.9425 0.883386 62.4534 0.386709C61.9642 -0.109968 61.1493 -0.130992 60.6332 0.339752L50.2062 9.85064H53.9494ZM57.1272 22.6009V14.0387H63.4971V9.85064H53.9494L49.3579 14.0387H46.0422C46.2658 14.7317 46.3776 15.5106 46.3776 16.3755C46.3776 16.507 46.3751 16.6364 46.3702 16.7639L49.3579 14.0387H52.2078V20.7337L52.2054 20.7358L50.7084 22.1013C50.1923 22.5721 50.1704 23.3563 50.6596 23.853C51.0694 24.2692 51.7079 24.3514 52.2078 24.0902V31.3373H57.1272V26.0152L64.5982 19.2006C65.1143 18.7299 65.1361 17.9456 64.647 17.4489C64.1578 16.9523 63.3429 16.9312 62.8268 17.402L57.1272 22.6009ZM57.1272 22.6009V26.0152L56.3552 26.7193C55.8391 27.1901 55.0242 27.1691 54.5351 26.6724C54.0459 26.1757 54.0678 25.3914 54.5839 24.9207L57.1272 22.6009ZM52.2078 24.0902V20.7337C52.724 20.2652 53.5371 20.2869 54.0255 20.7828C54.5147 21.2795 54.4928 22.0637 53.9767 22.5345L52.4797 23.9C52.396 23.9763 52.3045 24.0397 52.2078 24.0902ZM51.0685 4.41688C50.5794 3.92021 50.6012 3.13596 51.1173 2.66521L52.4183 1.47857C52.9343 1.00782 53.7492 1.02884 54.2384 1.52552C54.7275 2.0222 54.7057 2.80645 54.1896 3.27719L52.8886 4.46384C52.3726 4.93458 51.5577 4.91356 51.0685 4.41688ZM27.4816 11.5501L24.1074 15.1009C23.7289 14.6356 23.2034 14.2815 22.5306 14.0387C21.8579 13.7959 21.1957 13.6745 20.544 13.6745C19.7241 13.6745 18.9672 13.8667 18.2735 14.2512C17.5797 14.6153 17.2328 15.1616 17.2328 15.89C17.2328 16.416 17.422 16.8611 17.8005 17.2253C18.1789 17.5692 18.6624 17.8525 19.251 18.075C19.8607 18.2774 20.5334 18.4797 21.2693 18.682C22.0051 18.8641 22.7409 19.0968 23.4767 19.38C24.0258 19.5914 24.5339 19.8422 25.001 20.1325L23.8537 21.179C23.3376 21.6497 23.3158 22.434 23.8049 22.9307C24.2941 23.4273 25.109 23.4484 25.6251 22.9776L26.8012 21.9048C26.851 21.9913 26.8991 22.0804 26.9455 22.1721C27.3239 22.9207 27.5131 23.8008 27.5131 24.8124C27.5131 27.0986 26.6932 28.8487 25.0534 30.0627C23.4136 31.2766 21.3639 31.8836 18.9042 31.8836C15.9189 31.8836 13.4172 30.9832 11.399 29.1826L14.8993 25.4801C15.4038 26.1073 16.0345 26.6029 16.7914 26.9671C17.5692 27.3313 18.3681 27.5134 19.188 27.5134C20.0709 27.5134 20.8593 27.3212 21.5531 26.9368C22.2468 26.5321 22.5937 25.9757 22.5937 25.2676C22.5937 24.6606 22.3309 24.1447 21.8053 23.7198C21.3008 23.295 20.6596 22.9814 19.8817 22.779C19.1039 22.5767 18.263 22.3137 17.359 21.99C16.455 21.6663 15.6141 21.3122 14.8362 20.9278C14.646 20.8338 14.4634 20.7277 14.2883 20.6096L16.309 18.7664C16.8251 18.2956 16.847 17.5114 16.3578 17.0147C15.8687 16.518 15.0538 16.497 14.5377 16.9678L12.6295 18.7083C12.2927 18.0016 12.1243 17.1937 12.1243 16.2845C12.1243 14.0994 12.9547 12.3898 14.6155 11.1556C16.2973 9.92145 18.305 9.30437 20.6386 9.30437C23.4346 9.30437 25.7156 10.053 27.4816 11.5501ZM12.6295 18.7083C12.7049 18.8665 12.7888 19.0196 12.8811 19.1676C13.2782 19.7637 13.7472 20.2444 14.2883 20.6096L2.17316 31.6602C1.65707 32.131 0.842174 32.11 0.353031 31.6133C-0.136111 31.1166 -0.114267 30.3324 0.401822 29.8616L12.6295 18.7083ZM26.8012 21.9048L27.4891 21.2773C28.0052 20.8066 28.0271 20.0223 27.5379 19.5257C27.0488 19.029 26.2339 19.008 25.7178 19.4787L25.001 20.1325C25.1599 20.2312 25.314 20.3344 25.4633 20.4422C25.9983 20.7973 26.4443 21.2848 26.8012 21.9048ZM34.5206 13.8566V18.9552H37.8002C40.1128 18.9552 41.269 18.0953 41.269 16.3755C41.269 14.6963 39.8605 13.8566 37.0434 13.8566H34.5206Z" fill="url(#paint0_linear_1545_19065)"/>
<defs>
<linearGradient id="paint0_linear_1545_19065" x1="-3.87774" y1="22.1371" x2="72.3306" y2="22.1371" gradientUnits="userSpaceOnUse">
<stop stop-color="#C4C4C4"/>
<stop offset="0.0001" stop-color="#F578D2"/>
<stop offset="1" stop-color="#346BF9"/>
</linearGradient>
</defs>
</svg>
